# xmcd
#
# Track frame offsets:
#	150
#	19276
#	44207
#
# Disc length: 916 seconds
#
# Revision: 0
# Processed by: cddbd v1.5.2PL0 Copyright (c) Steve Scherf et al.
# Submitted via: audiograbber 1.83.01
#
DISCID=26039203
DTITLE=Martin Vitasek - Courage In A Heart
DYEAR=2013
DGENRE=Bluegrass
TTITLE0=Fate Train
TTITLE1=Courage In My Heart
TTITLE2=For My Lucky Star
EXTD=Martin Vitasek - lead vocal, guitar - Adam Zielonka - mandolin, vocals - Mic
EXTD=hal Wawrzyczek - banjo, samples, vocals - Karel Zacal - dobro, piano - Lukas
EXTD=Rytir - double bass - Recorded and mixed by M.Wawrzyczek, Karvina 2010, Cz
EXTD=ech Rep. - All songs written and arranged by Martin Vitasek.
EXTT0=
EXTT1=
EXTT2=
PLAYORDER=
